<svg width="501" height="407" viewBox="0 0 501 407" fill="none" xmlns="http://www.w3.org/2000/svg">
<path d="M250.352 406.337C246.799 406.362 243.301 405.452 240.209 403.7C213.736 388.383 17.6668 265.448 10.2623 261.695C4.62718 259.065 0.779276 253.678 0.119061 247.494V75.0597C-0.0267513 68.6232 3.15523 62.5659 8.5379 59.0335L9.95795 58.2221C28.9258 46.4559 92.422 7.70885 102.464 2.13007C104.768 0.76262 107.393 0.0278239 110.071 0C112.583 0.0284177 115.051 0.654261 117.273 1.82578C117.273 1.82578 206.128 59.7435 219.72 64.9165C229.256 69.2981 239.655 71.4818 250.15 71.3068C262.041 71.5553 273.79 68.6879 284.23 62.9894C297.518 55.9905 382.417 2.13007 383.33 2.13007C385.47 0.837261 387.929 0.169654 390.43 0.202864C393.111 0.215988 395.739 0.951842 398.037 2.33294C409.601 8.72313 488.312 56.9034 491.659 59.0335C497.195 62.3735 500.551 68.3921 500.484 74.8569V247.291C499.863 253.49 496.003 258.894 490.341 261.492C482.936 265.549 287.476 388.485 260.495 403.497C257.424 405.321 253.924 406.3 250.352 406.337Z" fill="url(#paint0_linear_648_43)"/>
<path d="M249.338 406.338L250.352 406.337C253.906 406.362 257.404 405.452 260.495 403.7C286.969 388.384 482.936 265.448 490.341 261.695C496.003 259.097 499.863 253.693 500.484 247.494V75.0597C500.516 72.1407 499.856 69.2554 498.556 66.641L249.338 203.473V406.338Z" fill="url(#paint1_linear_648_43)"/>
<path d="M248.471 403.906L247.468 403.905C243.952 403.93 240.491 403.03 237.433 401.296C211.241 386.143 17.3617 264.517 10.0359 260.804C4.4344 258.234 0.615295 252.887 0.0010725 246.755V76.1573C-0.031255 73.2693 0.621954 70.4148 1.90771 67.8282L248.471 203.202V403.906Z" fill="url(#paint2_linear_648_43)"/>
<defs>
<linearGradient id="paint0_linear_648_43" x1="-0.18968" y1="3.71313" x2="495.58" y2="-0.126875" gradientUnits="userSpaceOnUse">
<stop offset="1e-07" stop-color="#FF9200"/>
<stop offset="0.337553" stop-color="#F36D00"/>
<stop offset="0.56729" stop-color="#F83C72"/>
<stop offset="0.78" stop-color="#FC1CBE"/>
<stop offset="0.93" stop-color="#FE08ED"/>
<stop offset="1" stop-color="#FF00FF"/>
</linearGradient>
<linearGradient id="paint1_linear_648_43" x1="139.086" y1="363.934" x2="644.547" y2="84.0644" gradientUnits="userSpaceOnUse">
<stop stop-color="#EE0A3F"/>
<stop offset="1" stop-color="#EE0A3F" stop-opacity="0"/>
</linearGradient>
<linearGradient id="paint2_linear_648_43" x1="188.276" y1="290.998" x2="-55.9739" y2="94.2413" gradientUnits="userSpaceOnUse">
<stop stop-color="#ED6600"/>
<stop offset="1" stop-color="#F98200"/>
</linearGradient>
</defs>
</svg>
